<?xml version="1.0" encoding="utf-8"?>
<!-- Generator: Adobe Illustrator 23.0.0, SVG Export Plug-In . SVG Version: 6.00 Build 0)  -->
<svg version="1.1" xmlns="http://www.w3.org/2000/svg" xmlns:xlink="http://www.w3.org/1999/xlink" x="0px" y="0px"
	 viewBox="0 0 2000 2000" style="enable-background:new 0 0 2000 2000;" xml:space="preserve">
<style type="text/css">
	.st0{display:none;}
	.st1{display:inline;fill:#1A1A1A;}
	.st2{fill:#333333;}
	.st3{fill:#4D4D4D;}
	.st4{fill:#0093F5;}
</style>
<g id="Layer_2" class="st0">
	<rect class="st1" width="2000" height="2000"/>
</g>
<g id="Layer_1">
	<g>
		<path class="st2" d="M494.24,1067.77h-66.8l-9.61,23.57h-36.02l61.12-149.97h36.02l61.12,149.97h-36.24L494.24,1067.77z
			 M483.11,1040.48l-22.27-54.79l-22.27,54.79H483.11z"/>
		<path class="st2" d="M569.77,1069.07l18.56-22.05c14.19,12.22,30.34,19.64,49.33,19.64c16.15,0,24.45-7.42,24.45-16.81
			c0-10.7-8.73-13.97-31.65-19.21c-31.65-7.2-54.14-16.15-54.14-45.19c0-27.72,22.7-46.71,55.45-46.71
			c24.45,0,43.44,7.64,58.72,20.74l-16.81,23.14c-13.32-10.7-28.38-16.59-42.78-16.59c-13.75,0-22.05,7.2-22.05,16.15
			c0,10.91,8.95,14.41,32.09,19.65c32.31,7.2,53.7,16.81,53.7,44.53c0,28.6-21.61,47.59-58.28,47.59
			C610.37,1093.96,587.23,1085.23,569.77,1069.07z"/>
		<path class="st2" d="M778.46,970.41h-46.71v-29.03h125.74v29.03h-46.71v120.93h-32.31V970.41z"/>
		<path class="st2" d="M933.22,970.41v29.91h75.31v29.03h-75.31v32.96h83.17v29.03H900.92V941.37h115.48v29.03H933.22z"/>
		<path class="st3" d="M1068.34,941.37h17.03l55.66,104.56l55.66-104.56h17.03v149.97h-17.03V978.05l-55.66,104.56l-55.66-104.56
			v113.29h-17.03V941.37z"/>
		<path class="st3" d="M1267.42,1016.25c0-42.13,35.36-77.49,76.84-77.49c41.69,0,76.62,35.36,76.62,77.49s-34.93,77.71-76.62,77.71
			C1302.79,1093.96,1267.42,1058.38,1267.42,1016.25z M1403.64,1016.25c0-33.4-27.07-61.78-59.37-61.78
			c-32.31,0-59.59,28.38-59.59,61.78c0,33.62,27.29,61.99,59.59,61.99C1376.57,1078.24,1403.64,1049.86,1403.64,1016.25z"/>
		<path class="st3" d="M1514.31,957.53h-50.43v-16.15h117.88v16.15h-50.42v133.81h-17.03V957.53z"/>
		<path class="st3" d="M1615.38,1016.25c0-42.13,35.36-77.49,76.84-77.49c41.69,0,76.62,35.36,76.62,77.49s-34.93,77.71-76.62,77.71
			C1650.74,1093.96,1615.38,1058.38,1615.38,1016.25z M1751.59,1016.25c0-33.4-27.07-61.78-59.37-61.78
			c-32.31,0-59.59,28.38-59.59,61.78c0,33.62,27.29,61.99,59.59,61.99C1724.52,1078.24,1751.59,1049.86,1751.59,1016.25z"/>
		<path class="st3" d="M1894.57,1035.89l38.86,55.45h-19.43l-37.98-53.92h-39.73v53.92h-17.03V941.37h60.9
			c31,0,55.23,19.86,55.23,48.02C1935.39,1012.97,1918.36,1030.87,1894.57,1035.89z M1836.28,1021.27h40.82
			c24.45,0,41.04-11.79,41.04-31.87c0-20.08-16.59-31.87-41.04-31.87h-40.82V1021.27z"/>
		<path class="st3" d="M1982.97,941.37H2000v149.97h-17.03V941.37z"/>
	</g>
	<g>
		<path class="st4" d="M44.38,1097.34c-17.28-21.68-27.64-49.11-27.64-78.93c0-69.98,56.93-126.91,126.91-126.91
			c69.98,0,126.91,56.93,126.91,126.91c0,29.82-10.36,57.24-27.64,78.93c5.99,0.63,11.74,2.42,16.94,5.21
			c17.18-23.66,27.32-52.73,27.32-84.14c0-79.14-64.39-143.53-143.53-143.53c-79.14,0-143.53,64.39-143.53,143.53
			c0,31.4,10.15,60.48,27.32,84.14C32.65,1099.76,38.39,1097.97,44.38,1097.34z"/>
		<g>
			<path class="st4" d="M143.66,865.81c7.47,0,14.82,0.55,22.01,1.59l0.91-20.86h-45.83l0.91,20.86
				C128.84,866.36,136.18,865.81,143.66,865.81z"/>
			<path class="st4" d="M266.15,1129.98c-5.09-10.87-16.01-17.81-28.01-17.81h-1.95c-6.5,0-12.68-2.79-16.98-7.66l-8.64-9.79
				c-6.48-7.35-15.81-11.55-25.61-11.55h-28.67l7.85-180.77c-6.66-1.17-13.5-1.82-20.49-1.82s-13.83,0.65-20.49,1.82l7.85,180.77
				h-28.67c-9.8,0-19.12,4.21-25.61,11.55l-8.64,9.79c-4.3,4.87-10.49,7.66-16.98,7.66h-1.95c-12,0-22.92,6.94-28.01,17.81
				l-11.08,23.66h22.98c0-12.47,10.11-22.57,22.57-22.57c12.47,0,22.57,10.11,22.57,22.57h130.88c0-12.47,10.11-22.57,22.57-22.57
				s22.57,10.11,22.57,22.57h22.98L266.15,1129.98z"/>
		</g>
	</g>
</g>
</svg>
